HIERARCHY
ROOT Hips
{
	OFFSET 0.000000 0.000000 0.000000
	CHANNELS 6 Xposition Yposition Zposition Zrotation Yrotation Xrotation 
	JOINT LHipJoint
	{
		OFFSET 0.000000 0.000000 0.000000
		CHANNELS 3 Zrotation Yrotation Xrotation
		JOINT LeftUpLeg
		{
			OFFSET 1.363060 -1.794630 0.839290
			CHANNELS 3 Zrotation Yrotation Xrotation
			JOINT LeftLeg
			{
				OFFSET 2.448110 -6.726130 0.000000
				CHANNELS 3 Zrotation Yrotation Xrotation
				JOINT LeftFoot
				{
					OFFSET 2.562200 -7.039590 0.000000
					CHANNELS 3 Zrotation Yrotation Xrotation
					JOINT LeftToeBase
					{
						OFFSET 0.157640 -0.433110 2.322550
						CHANNELS 3 Zrotation Yrotation Xrotation
						End Site
						{
							OFFSET 0.000000 0.000000 0.000000
						}
					}
				}
			}
		}
	}
	JOINT RHipJoint
	{
		OFFSET 0.000000 0.000000 0.000000
		CHANNELS 3 Zrotation Yrotation Xrotation
		JOINT RightUpLeg
		{
			OFFSET -1.305520 -1.794630 0.839290
			CHANNELS 3 Zrotation Yrotation Xrotation
			JOINT RightLeg
			{
				OFFSET -2.542530 -6.985550 0.000000
				CHANNELS 3 Zrotation Yrotation Xrotation
				JOINT RightFoot
				{
					OFFSET -2.568260 -7.056230 0.000000
					CHANNELS 3 Zrotation Yrotation Xrotation
					JOINT RightToeBase
					{
						OFFSET -0.164730 -0.452590 2.363150
						CHANNELS 3 Zrotation Yrotation Xrotation
						End Site
						{
							OFFSET 0.000000 0.000000 0.000000
						}
					}
				}
			}
		}
	}
	JOINT LowerBack
	{
		OFFSET 0.000000 0.000000 0.000000
		CHANNELS 3 Zrotation Yrotation Xrotation
		JOINT Spine
		{
			OFFSET 0.028270 2.035590 -0.193380
			CHANNELS 3 Zrotation Yrotation Xrotation
			JOINT Spine1
			{
				OFFSET 0.056720 2.048850 -0.042750
				CHANNELS 3 Zrotation Yrotation Xrotation
				JOINT Neck
				{
					OFFSET 0.000000 0.000000 0.000000
					CHANNELS 3 Zrotation Yrotation Xrotation
					JOINT Neck1
					{
						OFFSET -0.054170 1.746240 0.172020
						CHANNELS 3 Zrotation Yrotation Xrotation
						JOINT Head
						{
							OFFSET 0.104070 1.761360 -0.123970
							CHANNELS 3 Zrotation Yrotation Xrotation
							End Site
							{
								OFFSET 0.000000 0.000000 0.000000
							}
						}
					}
				}
				JOINT LeftShoulder
				{
					OFFSET 0.000000 0.000000 0.000000
					CHANNELS 3 Zrotation Yrotation Xrotation
					JOINT LeftArm
					{
						OFFSET 3.362410 1.200890 -0.311210
						CHANNELS 3 Zrotation Yrotation Xrotation
						JOINT LeftForeArm
						{
							OFFSET 4.983000 -0.000000 -0.000000
							CHANNELS 3 Zrotation Yrotation Xrotation
							JOINT LeftHand
							{
								OFFSET 3.483560 -0.000000 -0.000000
								CHANNELS 3 Zrotation Yrotation Xrotation
								JOINT LeftFingerBase
								{
									OFFSET 0.000000 0.000000 0.000000
									CHANNELS 3 Zrotation Yrotation Xrotation
									JOINT LeftHandIndex1
									{
										OFFSET 0.715260 -0.000000 -0.000000
										CHANNELS 3 Zrotation Yrotation Xrotation
										End Site
										{
											OFFSET 0.000000 0.000000 0.000000
										}
									}
								}
								JOINT LThumb
								{
									OFFSET 0.000000 0.000000 0.000000
									CHANNELS 3 Zrotation Yrotation Xrotation
									End Site
									{
										OFFSET 0.000000 0.000000 0.000000
									}
								}
							}
						}
					}
				}
				JOINT RightShoulder
				{
					OFFSET 0.000000 0.000000 0.000000
					CHANNELS 3 Zrotation Yrotation Xrotation
					JOINT RightArm
					{
						OFFSET -3.136600 1.374050 -0.404650
						CHANNELS 3 Zrotation Yrotation Xrotation
						JOINT RightForeArm
						{
							OFFSET -5.241900 -0.000000 -0.000000
							CHANNELS 3 Zrotation Yrotation Xrotation
							JOINT RightHand
							{
								OFFSET -3.444170 -0.000000 -0.000000
								CHANNELS 3 Zrotation Yrotation Xrotation
								JOINT RightFingerBase
								{
									OFFSET 0.000000 0.000000 0.000000
									CHANNELS 3 Zrotation Yrotation Xrotation
									JOINT RightHandIndex1
									{
										OFFSET -0.622530 -0.000000 -0.000000
										CHANNELS 3 Zrotation Yrotation Xrotation
										End Site
										{
											OFFSET 0.000000 0.000000 0.000000
										}
									}
								}
								JOINT RThumb
								{
									OFFSET 0.000000 0.000000 0.000000
									CHANNELS 3 Zrotation Yrotation Xrotation
									End Site
									{
										OFFSET 0.000000 0.000000 0.000000
									}
								}
							}
						}
					}
				}
			}
		}
	}
}
MOTION
Frames: 10
Frame Time: 0.008333
4.106345 20.208272 -5.331961 -3.765655 6.226461 0.929183 45.164116 15.524933 22.208724 -67.746868 -47.266662 -17.846827 13.712302 11.289120 66.232791 -13.824426 -33.553950 -47.399878 2.483700 9.808200 28.357900 -50.143471 -22.144696 6.354806 94.130262 18.228724 4.899153 -18.928247 -8.269904 45.962443 -6.013537 4.249667 -65.610667 -0.228900 3.079400 -8.499900 2.911808 -1.546247 -20.448591 6.886242 -5.300105 87.177360 -9.162104 0.671698 -32.592278 -6.832642 -4.547170 -40.152325 0.960316 -3.189665 45.370101 1.145200 -1.129000 6.523100 14.724453 3.696764 1.514341 -95.533987 -10.254299 46.031685 48.127736 -55.187282 -5.569169 -2.364829 0.951327 -3.869514 1.128294 -12.417793 -0.799700 -7.125000 0.000000 0.000000 -16.347400 16.764600 11.415400 -20.018265 -1.066068 3.622860 110.104675 -2.094039 17.074473 -44.750772 49.226579 -5.740154 2.145729 -11.676129 2.313816 2.273030 -31.385998 0.294100 7.125000 0.000000 0.000000 26.305700 -47.967400 -2.060500 
4.127640 20.223596 -5.271889 -3.961039 6.139978 0.330998 45.612961 15.330854 21.413397 -69.381584 -45.470993 -15.713995 13.813406 11.073482 65.924466 -14.008517 -33.765281 -47.159066 2.627500 10.066000 29.190900 -50.285061 -21.966082 6.151668 94.199673 17.546570 5.392337 -19.036274 -8.227875 45.304085 -6.093219 4.047595 -65.257609 -0.244100 3.179400 -8.778500 2.526211 -1.659089 -20.071305 7.883282 -6.018420 87.064053 -9.380817 0.460838 -32.455939 -6.632801 -4.539165 -40.033274 0.269514 -2.927616 44.947131 1.097500 -1.125300 6.488400 14.498380 3.640122 1.500731 -95.604196 -10.046076 46.021980 48.322119 -55.243358 -5.544434 -2.577310 0.904777 -3.810036 0.260527 -12.427468 -0.646300 -7.125000 0.000000 0.000000 -16.782500 16.803700 11.732500 -20.166520 -1.009160 3.672319 109.871983 -2.300693 16.967743 -45.245331 49.601485 -5.892409 2.124976 -11.528090 1.310040 1.572116 -31.147103 0.448700 7.125000 0.000000 0.000000 25.811900 -47.884700 -1.960700 
4.148504 20.238272 -5.210738 -4.102207 6.026690 -0.381139 46.174461 15.125377 20.425628 -71.293011 -43.383451 -13.157036 13.911293 10.704518 65.204202 -14.158980 -34.024573 -47.024951 2.812800 10.385700 30.234900 -50.488958 -21.746476 5.928210 94.248149 16.789650 5.965926 -19.152146 -8.183998 44.599678 -6.185240 3.809653 -64.878674 -0.256300 3.257100 -8.995400 2.088584 -1.747709 -19.545315 8.823910 -6.689858 86.912455 -9.540484 0.284001 -32.339096 -6.442724 -4.531942 -40.104900 -0.466015 -2.634742 44.866622 1.053800 -1.109000 6.498700 14.257808 3.587540 1.503703 -95.675796 -9.811066 45.973047 48.509634 -55.327609 -5.553802 -2.719504 0.850903 -3.757465 -0.350035 -12.505547 -0.539500 -7.125000 0.000000 0.000000 -17.087500 16.782500 11.974800 -20.285553 -0.937990 3.738123 109.628490 -2.524133 16.798883 -45.779227 50.021095 -6.062024 2.113846 -11.366548 0.398372 0.964892 -30.858729 0.579000 7.125000 0.000000 0.000000 25.363800 -47.771400 -1.847100 
4.169007 20.251222 -5.149227 -4.167225 5.857628 -1.123364 46.795767 14.975818 19.255005 -73.346624 -41.049853 -10.326996 13.979153 10.194073 64.060900 -14.235024 -34.360591 -47.103250 2.971200 10.648300 31.102600 -50.744694 -21.487930 5.758683 94.265789 16.112524 6.525465 -19.278910 -8.135584 43.934382 -6.281173 3.540434 -64.467713 -0.265900 3.317300 -9.163400 1.670992 -1.796120 -18.906802 9.579321 -7.206747 86.709719 -9.620613 0.178965 -32.310615 -6.322914 -4.522366 -40.648083 -1.299470 -2.251885 45.705085 1.022700 -1.058800 6.620400 14.000711 3.529120 1.545203 -95.714975 -9.535013 45.881608 48.687210 -55.453248 -5.602592 -2.803262 0.805902 -3.716278 -0.739605 -12.599625 -0.470700 -7.125000 0.000000 0.000000 -17.282900 16.736900 12.143500 -20.348653 -0.861298 3.837717 109.377703 -2.757447 16.584176 -46.309961 50.437541 -6.233189 2.116849 -11.200816 -0.382350 0.501988 -30.543584 0.673000 7.125000 0.000000 0.000000 25.002800 -47.635500 -1.728900 
4.189295 20.261509 -5.088147 -4.149555 5.608314 -1.842067 47.441880 14.918472 17.949832 -75.424598 -38.549478 -7.369206 14.004760 9.562476 62.495355 -14.212554 -34.795166 -47.453923 3.050200 10.775900 31.527900 -51.039109 -21.193350 5.709869 94.247695 15.635999 6.999100 -19.413812 -8.078826 43.393729 -6.364513 3.272340 -64.028448 -0.272300 3.356400 -9.272500 1.319029 -1.799410 -18.265023 10.080041 -7.525685 86.526573 -9.628649 0.157897 -32.320330 -6.273504 -4.473642 -41.353048 -2.164717 -1.787115 46.780202 1.010800 -0.976500 6.777300 13.755073 3.462707 1.593016 -95.720660 -9.225618 45.737100 48.894105 -55.630742 -5.695478 -2.837193 0.779390 -3.685003 -0.937952 -12.670689 -0.434200 -7.125000 0.000000 0.000000 -17.386000 16.696100 12.239700 -20.370749 -0.798959 3.932508 109.143955 -2.974996 16.345688 -46.813899 50.823165 -6.391963 2.134954 -11.030127 -0.999777 0.196565 -30.182647 0.728600 7.125000 0.000000 0.000000 24.726300 -47.459100 -1.593700 
4.209295 20.269063 -5.028003 -4.069344 5.285809 -2.535178 48.107564 14.954821 16.528875 -77.457273 -35.918218 -4.357767 14.004183 8.830300 60.519568 -14.083339 -35.320547 -48.071869 3.021500 10.729800 31.373800 -51.358290 -20.866301 5.783589 94.204410 15.370996 7.382204 -19.552156 -8.011958 42.992088 -6.428666 3.031048 -63.576480 -0.273500 3.363700 -9.293100 1.020031 -1.767152 -17.626979 10.360227 -7.680583 86.360626 -9.564448 0.206175 -32.363399 -6.231562 -4.393368 -42.219983 -3.145721 -1.220772 48.057227 1.006600 -0.869000 6.968600 13.509877 3.398718 1.649319 -95.711273 -8.867527 45.504531 49.130588 -55.856120 -5.830298 -2.823032 0.773632 -3.657483 -0.947332 -12.706469 -0.429700 -7.125000 0.000000 0.000000 -17.398600 16.670300 12.259800 -20.370058 -0.743473 4.020786 108.924940 -3.150381 16.112496 -47.253540 51.152208 -6.522810 2.154846 -10.849863 -1.447425 0.004855 -29.738693 0.755100 7.125000 0.000000 0.000000 24.491900 -47.214800 -1.420800 
4.229079 20.274243 -4.969226 -3.951719 4.902100 -3.226751 48.781817 15.057085 15.004680 -79.382431 -33.182541 -1.345941 14.027033 8.040812 58.182055 -13.870412 -35.876413 -48.834357 2.975000 10.654500 31.123400 -51.686159 -20.500277 5.957646 94.147061 15.293914 7.696455 -19.686268 -7.933746 42.723222 -6.466486 2.845278 -63.132813 -0.271400 3.350900 -9.257200 0.755130 -1.704802 -16.978565 10.470097 -7.724067 86.219582 -9.443510 0.294346 -32.435822 -6.153456 -4.302967 -43.104162 -4.095347 -0.647656 49.355567 1.004000 -0.759600 7.165100 13.283115 3.352592 1.710023 -95.709793 -8.467161 45.189491 49.387667 -56.102962 -5.994528 -2.759470 0.780169 -3.659637 -0.768800 -12.731761 -0.457600 -7.125000 0.000000 0.000000 -17.320700 16.642300 12.210500 -20.355257 -0.675720 4.097220 108.716252 -3.270022 15.911041 -47.617517 51.421028 -6.624226 2.170588 -10.672488 -1.774131 -0.124096 -29.252895 0.765600 7.125000 0.000000 0.000000 24.279800 -46.929700 -1.226600 
4.248576 20.277265 -4.912175 -3.815585 4.473814 -3.898409 49.424974 15.186060 13.433827 -81.117668 -30.451308 1.537057 14.114741 7.271164 55.608828 -13.634366 -36.398369 -49.549647 3.037800 10.756000 31.461200 -52.002275 -20.099767 6.212775 94.083926 15.411211 7.939517 -19.817368 -7.836836 42.583971 -6.468351 2.739246 -62.723978 -0.268500 3.333200 -9.207700 0.510538 -1.613027 -16.344036 10.451504 -7.695155 86.110707 -9.262568 0.407357 -32.525668 -5.995067 -4.205206 -43.933681 -4.964988 -0.105765 50.515219 0.997700 -0.656900 7.346400 13.079617 3.347419 1.766672 -95.730850 -8.051503 44.822320 49.642775 -56.351421 -6.177369 -2.642719 0.788698 -3.715972 -0.392523 -12.784279 -0.520700 -7.125000 0.000000 0.000000 -17.145500 16.584900 12.097200 -20.331713 -0.584569 4.159055 108.508829 -3.340600 15.740353 -47.927085 51.662113 -6.711197 2.190480 -10.519258 -2.032588 -0.192483 -28.826286 0.764000 7.125000 0.000000 0.000000 24.124100 -46.674400 -1.057200 
4.267929 20.278128 -4.857427 -3.660560 4.025422 -4.499340 49.983176 15.304791 11.924992 -82.603119 -27.898278 4.115968 14.258265 6.597266 52.989406 -13.404729 -36.847211 -50.133688 3.201600 11.014400 32.328500 -52.296762 -19.683327 6.542411 94.017783 15.758247 8.087883 -19.950910 -7.709130 42.578262 -6.418723 2.740983 -62.367152 -0.276600 3.382800 -9.346300 0.297348 -1.490295 -15.785103 10.264643 -7.583173 86.066176 -8.936708 0.551861 -32.619222 -5.506441 -4.064905 -44.579108 -6.177886 0.542362 51.196148 0.938700 -0.569500 7.470000 12.880303 3.431553 1.803829 -95.792015 -7.659449 44.428788 49.873062 -56.579187 -6.369390 -2.458832 0.783576 -3.839700 0.229636 -12.930881 -0.630400 -7.125000 0.000000 0.000000 -16.845700 16.448000 11.918000 -20.333510 -0.446120 4.196719 108.292974 -3.345474 15.596385 -48.205415 51.923173 -6.801287 2.219880 -10.409061 -2.272208 -0.213749 -28.549025 0.757200 7.125000 0.000000 0.000000 24.044600 -46.513200 -0.952200 
4.287209 20.276833 -4.805484 -3.498939 3.566512 -4.932448 50.422811 15.395635 10.623211 -83.814782 -25.762676 6.200907 14.415687 6.067856 50.555286 -13.162757 -37.181909 -50.618760 3.415400 11.338900 33.431700 -52.561028 -19.275248 6.963119 93.964220 16.418181 8.081619 -20.085407 -7.545207 42.717450 -6.307094 2.874697 -62.062408 -0.305300 3.552500 -9.820900 0.152564 -1.348108 -15.369102 9.903284 -7.376406 86.068900 -8.511334 0.718167 -32.755169 -4.829655 -3.895625 -45.118779 -7.457875 1.202483 51.636496 0.855300 -0.489800 7.557100 12.705980 3.581479 1.827682 -95.872491 -7.286098 44.021198 50.074744 -56.787725 -6.569386 -2.209788 0.757139 -4.015165 1.094795 -13.204637 -0.791100 -7.125000 0.000000 0.000000 -16.420000 16.205900 11.679900 -20.324172 -0.277445 4.217017 108.073460 -3.311629 15.474195 -48.470119 52.212044 -6.904442 2.253398 -10.346285 -2.540659 -0.228012 -28.455685 0.754400 7.125000 0.000000 0.000000 24.029200 -46.474800 -0.927400 
